<!DOCTYPE svg PUBLIC "-//W3C//DTD SVG 20010904//EN" "http://www.w3.org/TR/2001/REC-SVG-20010904/DTD/svg10.dtd">
<svg version="1.0" xmlns="http://www.w3.org/2000/svg" width="160px" height="100px" viewBox="0 0 1600 1000" preserveAspectRatio="xMidYMid meet">
<g id="layer1" fill="#4d2c01" stroke="none">
 <path d="M279 554 c-15 -18 -24 -110 -15 -158 9 -48 32 -69 65 -61 30 8 41 21 41 53 0 31 -26 28 -34 -4 -4 -14 -12 -24 -19 -21 -8 2 -12 32 -12 93 0 72 3 89 15 89 8 0 16 -10 18 -22 2 -13 10 -23 18 -23 17 0 19 41 2 58 -17 17 -63 15 -79 -4z"/>
 <path d="M400 445 c0 -104 2 -125 15 -125 13 0 15 21 15 125 0 104 -2 125 -15 125 -13 0 -15 -21 -15 -125z"/>
 <path d="M476 554 c-3 -9 -6 -52 -6 -96 0 -70 2 -79 18 -76 14 3 17 17 20 86 2 60 6 82 15 79 8 -2 13 -33 15 -85 2 -64 6 -82 17 -82 12 0 15 18 15 93 l0 93 -44 2 c-32 1 -46 -3 -50 -14z"/>
 <path d="M620 551 c-16 -31 -13 -137 6 -155 35 -36 84 -7 84 50 0 32 -2 34 -35 34 -30 0 -35 3 -35 23 0 12 4 28 9 36 10 16 31 6 31 -15 0 -15 16 -19 23 -6 3 4 1 17 -4 30 -11 29 -63 31 -79 3z m58 -113 c-2 -13 -10 -23 -18 -23 -8 0 -16 10 -18 23 -3 17 2 22 18 22 16 0 21 -5 18 -22z"/>
 <path d="M790 515 c-15 -18 -15 -112 1 -131 14 -17 41 -18 57 -2 17 17 15 38 -3 38 -8 0 -15 -7 -15 -16 0 -8 -4 -12 -10 -9 -11 7 -14 115 -4 115 4 0 13 -8 20 -17 16 -22 28 -12 19 16 -8 25 -46 28 -65 6z"/>
 <path d="M886 514 c-3 -9 -6 -45 -6 -80 0 -49 3 -64 15 -64 11 0 15 16 17 67 2 42 8 68 16 71 9 3 12 -15 12 -67 0 -56 3 -71 15 -71 12 0 15 15 15 78 l0 79 -39 1 c-27 1 -41 -3 -45 -14z"/>
 <path d="M1000 452 l0 -78 35 -1 c19 -1 37 3 40 8 3 5 14 3 25 -3 14 -9 22 -9 34 1 22 18 23 151 1 151 -11 0 -15 -16 -17 -67 -2 -38 -7 -68 -13 -68 -5 0 -11 30 -13 68 -2 49 -7 67 -17 67 -10 0 -15 -18 -17 -67 -4 -86 -22 -85 -26 2 -2 49 -7 65 -17 65 -12 0 -15 -16 -15 -78z"/>
 <path d="M1180 423 c0 -85 3 -103 15 -103 10 0 15 10 15 29 0 24 3 28 20 24 23 -6 40 28 40 83 0 55 -15 74 -55 72 l-35 -1 0 -104z m58 47 c4 -42 -6 -83 -18 -75 -15 10 -13 118 3 113 6 -3 13 -19 15 -38z"/>
 <path d="M1302 518 c-16 -16 -15 -109 1 -133 19 -25 63 -14 69 17 7 40 -2 58 -28 58 -19 0 -24 5 -24 25 0 16 6 25 15 25 8 0 15 -7 15 -15 0 -8 5 -15 11 -15 6 0 9 10 7 23 -3 25 -45 36 -66 15z m46 -100 c-2 -13 -7 -23 -13 -23 -5 0 -11 10 -13 23 -2 15 2 22 13 22 11 0 15 -7 13 -22z"/>
 <path d="M1400 451 l0 -79 33 2 c25 1 33 6 35 24 2 12 -1 22 -7 22 -6 0 -11 -4 -11 -10 0 -5 -4 -10 -10 -10 -6 0 -10 28 -10 65 0 51 -3 65 -15 65 -12 0 -15 -15 -15 -79z"/>
 </g>
<g id="layer2" fill="#74d14d" stroke="none">
 <path d="M899 757 c-80 -45 -157 -90 -171 -99 -25 -16 -26 -16 -49 8 -12 13 -50 38 -83 54 -127 64 -274 28 -363 -88 -39 -51 -56 -107 -55 -184 3 -257 333 -379 507 -186 25 28 51 70 60 99 19 56 21 141 5 183 -5 15 -10 31 -10 35 0 5 73 48 162 97 185 102 203 115 188 144 -6 11 -18 20 -28 19 -9 0 -83 -37 -163 -82z m-365 -58 c82 -23 164 -105 169 -168 1 -12 5 -21 9 -21 13 0 9 -73 -7 -126 -42 -142 -204 -214 -340 -150 -98 45 -152 139 -142 246 14 157 162 261 311 219z"/>
 </g>
<g id="layer3" fill="#fefefe" stroke="none">
 <path d="M0 500 l0 -500 800 0 800 0 0 500 0 500 -800 0 -800 0 0 -500z m1090 320 c15 -29 -3 -42 -188 -144 -145 -79 -163 -92 -157 -110 3 -12 9 -40 12 -63 6 -45 23 -60 23 -20 0 29 18 47 46 47 14 0 25 -8 29 -21 9 -28 -3 -38 -19 -16 -7 9 -16 17 -20 17 -10 0 -7 -108 4 -115 6 -3 10 1 10 9 0 9 7 16 16 16 20 0 15 -29 -8 -44 -26 -16 -52 4 -56 43 -4 36 -22 43 -22 8 0 -84 -83 -199 -171 -237 -70 -30 -169 -30 -236 0 -210 93 -238 382 -48 511 87 59 197 66 291 19 33 -16 71 -41 83 -54 23 -24 24 -24 49 -8 66 44 319 181 334 181 10 1 22 -8 28 -19z m-120 -372 c0 -63 -3 -78 -15 -78 -12 0 -15 15 -15 71 0 52 -3 70 -12 67 -8 -3 -14 -29 -16 -71 -2 -51 -6 -67 -17 -67 -12 0 -15 15 -15 64 0 88 4 96 51 94 l39 -1 0 -79z m62 17 c4 -87 22 -88 26 -2 2 49 7 67 17 67 10 0 15 -18 17 -67 2 -38 8 -68 13 -68 6 0 11 30 13 68 2 51 6 67 17 67 22 0 21 -133 -1 -151 -12 -10 -20 -10 -34 -1 -11 6 -22 8 -25 3 -3 -5 -21 -9 -40 -8 l-35 1 0 78 c0 62 3 78 15 78 10 0 15 -16 17 -65z m228 45 c13 -24 13 -81 0 -115 -8 -20 -15 -26 -30 -22 -17 4 -20 0 -20 -24 0 -19 -5 -29 -15 -29 -12 0 -15 18 -15 103 l0 104 35 1 c25 1 38 -4 45 -18z m108 -7 c2 -13 -1 -23 -7 -23 -6 0 -11 7 -11 15 0 8 -7 15 -15 15 -9 0 -15 -9 -15 -25 0 -20 5 -25 24 -25 26 0 35 -18 28 -58 -6 -31 -50 -42 -69 -17 -16 24 -17 117 -1 133 21 21 63 10 66 -15z m62 -38 c0 -37 4 -65 10 -65 6 0 10 5 10 10 0 6 5 10 11 10 6 0 9 -10 7 -22 -2 -18 -10 -23 -35 -24 l-33 -2 0 79 c0 64 3 79 15 79 12 0 15 -14 15 -65z"/>
 <path d="M394 696 c-138 -43 -211 -201 -154 -334 60 -139 230 -194 356 -116 52 32 99 91 110 139 7 28 7 29 -10 12 -22 -21 -50 -22 -70 -1 -11 11 -16 34 -16 75 0 76 12 99 51 99 l30 0 -18 31 c-34 58 -133 110 -208 108 -16 0 -49 -6 -71 -13z m-36 -138 c17 -17 15 -58 -2 -58 -8 0 -16 10 -18 23 -2 12 -10 22 -18 22 -12 0 -15 -17 -15 -89 0 -61 4 -91 12 -93 7 -3 15 7 19 21 8 32 34 35 34 4 0 -32 -11 -45 -41 -53 -33 -8 -56 13 -65 61 -9 48 0 140 15 158 16 19 62 21 79 4z m72 -113 c0 -104 -2 -125 -15 -125 -13 0 -15 21 -15 125 0 104 2 125 15 125 13 0 15 -21 15 -125z m140 28 c0 -75 -3 -93 -15 -93 -11 0 -15 18 -17 82 -2 52 -7 83 -15 85 -9 3 -13 -19 -15 -79 -3 -69 -6 -83 -20 -86 -16 -3 -18 6 -18 76 0 107 2 112 56 110 l44 -2 0 -93z"/>
 <path d="M646 534 c-15 -39 -7 -54 28 -54 32 0 35 -3 39 -32 3 -25 4 -22 5 15 2 40 -1 47 -17 47 -10 0 -21 9 -24 20 -6 24 -22 26 -31 4z"/>
 <path d="M642 438 c2 -13 10 -23 18 -23 8 0 16 10 18 23 3 17 -2 22 -18 22 -16 0 -21 -5 -18 -22z"/>
 <path d="M1210 456 c0 -58 15 -84 25 -43 9 36 2 90 -12 95 -9 3 -13 -12 -13 -52z"/>
 <path d="M1322 418 c2 -13 8 -23 13 -23 6 0 11 10 13 23 2 15 -2 22 -13 22 -11 0 -15 -7 -13 -22z"/>
 </g>

</svg>